<?xml version="1.0" standalone="no"?>
<!DOCTYPE svg PUBLIC "-//W3C//DTD SVG 20010904//EN"
 "http://www.w3.org/TR/2001/REC-SVG-20010904/DTD/svg10.dtd">
<svg version="1.0" xmlns="http://www.w3.org/2000/svg"
 width="250.000000pt" height="107.000000pt" viewBox="0 0 250.000000 107.000000"
 preserveAspectRatio="xMidYMid meet">
<metadata>
Created by potrace 1.10, written by Peter Selinger 2001-2011
</metadata>
<g transform="translate(0.000000,107.000000) scale(0.100000,-0.100000)"
fill="#000000" stroke="none">
<path d="M1917 841 c-71 -6 -89 -22 -36 -32 43 -9 49 -22 49 -106 l0 -73 -26
10 c-73 28 -154 0 -201 -69 -58 -85 -35 -212 49 -274 38 -28 109 -27 148 2
l30 22 0 -22 c0 -17 4 -20 23 -15 12 3 41 6 65 6 31 0 42 4 42 15 0 9 -9 15
-24 15 -13 0 -27 7 -30 16 -3 9 -6 128 -6 265 0 137 -3 248 -7 247 -5 -1 -38
-4 -76 -7z m-8 -245 c20 -21 21 -31 19 -137 l-3 -114 -38 -19 c-33 -16 -42
-16 -69 -5 -47 19 -68 62 -68 142 0 71 8 96 43 135 28 31 86 30 116 -2z"/>
<path d="M1242 818 c-19 -19 -14 -55 10 -72 19 -13 25 -14 43 -2 24 16 31 51
15 72 -15 17 -52 18 -68 2z"/>
<path d="M740 787 c0 -7 15 -17 33 -22 l32 -10 0 -215 0 -214 -32 -10 c-18 -5
-33 -14 -33 -21 0 -18 285 -13 331 7 99 43 116 165 31 223 -20 14 -47 25 -59
25 -12 0 -25 5 -28 10 -3 6 1 10 10 10 27 0 71 30 89 60 36 62 2 139 -72 160
-57 15 -302 13 -302 -3z m282 -47 c27 -33 24 -102 -5 -136 -18 -21 -35 -28
-75 -32 l-52 -5 0 103 0 102 57 -4 c43 -4 61 -10 75 -28z m14 -234 c39 -39 44
-80 16 -136 -22 -45 -78 -66 -129 -49 l-33 11 0 104 0 104 56 0 c50 0 59 -3
90 -34z"/>
<path d="M484 631 c-45 -27 -71 -65 -82 -119 -19 -85 12 -174 71 -211 38 -24
123 -29 160 -10 32 17 77 61 77 76 0 20 -28 15 -40 -7 -15 -28 -47 -42 -93
-42 -59 1 -101 48 -108 121 l-4 34 118 -1 117 0 0 42 c0 49 -31 103 -70 123
-37 19 -110 16 -146 -6z m125 -37 c12 -15 21 -41 21 -58 l0 -31 -82 1 c-46 1
-82 4 -82 8 1 4 4 19 7 34 14 70 96 97 136 46z"/>
<path d="M1233 643 c-38 -3 -53 -8 -53 -19 0 -7 9 -14 19 -14 43 0 51 -24 51
-154 0 -126 -6 -146 -42 -146 -10 0 -18 -6 -18 -13 0 -11 21 -14 90 -13 66 0
90 4 90 13 0 7 -6 13 -14 13 -8 0 -22 7 -31 17 -14 14 -16 38 -14 167 2 126 0
151 -12 152 -8 0 -38 -1 -66 -3z"/>
<path d="M1433 643 c-38 -3 -53 -8 -53 -19 0 -7 8 -14 19 -14 36 0 42 -22 39
-161 -3 -130 -4 -134 -25 -137 -13 -2 -23 -9 -23 -15 0 -9 28 -13 95 -13 66
-1 95 2 95 10 0 7 -15 16 -32 21 l-33 10 -3 122 -3 121 30 21 c36 26 54 27 46
2 -7 -23 17 -44 47 -39 18 2 24 10 26 36 4 40 -12 62 -45 62 -31 0 -79 -25
-92 -47 -9 -15 -10 -12 -11 15 0 20 -5 31 -12 30 -7 -1 -37 -3 -65 -5z"/>
</g>
</svg>
